1.9Hzlow3min_grf.mot
version=1
nRows=10
nColumns 19
inDegrees=yes
endheader
time	1_ground_force_vx	1_ground_force_vy	1_ground_force_vz	1_ground_force_px	1_ground_force_py	1_ground_force_pz	1_ground_torque_x	1_ground_torque_y	1_ground_torque_z	2_ground_force_vx	2_ground_force_vy	2_ground_force_vz	2_ground_force_px	2_ground_force_py	2_ground_force_pz	2_ground_torque_x	2_ground_torque_y	2_ground_torque_z
            1.253500	            2.471166	           36.950813	            1.115288	           -0.117971	            0.006309	           -0.420591	            0.027993	            0.418579	            0.012634	           -8.104414	           25.037171	           -6.054814	           -0.066268	            0.006112	           -0.660675	            0.260817	           -0.805749	            0.194857
            1.254000	            2.470244	           41.998252	            1.136931	           -0.125777	            0.006295	           -0.417436	            0.001432	            0.024351	            0.000659	           -8.294472	           25.773088	           -6.052106	           -0.066285	            0.006124	           -0.663889	            0.305979	           -0.950757	            0.223259
            1.254500	            2.239769	           45.784769	            0.924452	           -0.131074	            0.006290	           -0.416487	           -0.015240	           -0.311523	           -0.006290	           -9.228147	           24.848963	           -6.054993	           -0.064805	            0.006105	           -0.657157	            0.316600	           -0.852521	            0.207735
            1.255000	            1.778809	           50.294272	            0.257075	           -0.128779	            0.006309	           -0.420876	           -0.012899	           -0.364717	           -0.001864	          -10.110422	           22.636806	           -6.297140	           -0.064893	            0.006089	           -0.652882	            0.266500	           -0.596683	            0.165986
            1.255500	            1.728546	           56.428997	           -1.046352	           -0.122195	            0.006323	           -0.423960	            0.000941	            0.030736	           -0.000570	          -10.430314	           20.425173	           -6.117172	           -0.048429	            0.006097	           -0.638404	            0.180796	           -0.354043	            0.106033
            1.256000	            0.852686	           62.384084	           -2.531927	           -0.123780	            0.006319	           -0.422978	            0.005510	            0.403146	           -0.016362	          -10.339752	           21.344746	           -5.691574	           -0.047309	            0.006121	           -0.643856	            0.150118	           -0.309894	            0.082633
            1.256500	           -0.802297	           70.320960	           -3.777787	           -0.130085	            0.006287	           -0.415922	           -0.004939	            0.432903	           -0.023256	           -9.826315	           21.898382	           -5.502110	           -0.048875	            0.006129	           -0.647737	            0.227050	           -0.505992	            0.127134
            1.257000	           -2.638914	           79.336052	           -4.239002	           -0.132179	            0.006297	           -0.418263	           -0.002673	            0.080358	           -0.004294	           -9.501106	           22.636829	           -5.687333	           -0.066304	            0.006078	           -0.651185	            0.267493	           -0.637315	            0.160121
            1.257500	           -4.015064	           86.545627	           -4.021247	           -0.131547	            0.006313	           -0.421971	            0.014347	           -0.309254	            0.014369	           -9.262328	           21.349641	           -5.973601	           -0.058250	            0.006060	           -0.638063	            0.312864	           -0.721152	            0.201777
            1.258000	           -5.940204	           91.951063	           -3.488864	           -0.131381	            0.006314	           -0.422293	            0.038153	           -0.590581	            0.022408	           -9.224303	           23.745245	           -6.387432	           -0.067550	            0.006075	           -0.651675	            0.307839	           -0.792440	            0.213165
